<svg xmlns="http://www.w3.org/2000/svg" viewBox="0 0 376.04 117.68">
  <path fill="#2a2a2a" d="M37.684 20.118L167.651-.887l8.026 49.658L45.71 69.776z" />
  <path
    d="M84.32 49.16a19.52 19.52 0 01-7.57 2.72c-7.4 1.19-12.47-3.07-13.67-10.56-1.18-7.31 2-13.81 8.94-14.93s10.6 4.2 11.57 10.26a15.08 15.08 0 01.22 2.21l-15.63 2.48c1 5.51 4.79 7 8.67 6.43a15.63 15.63 0 006-2.15zm-5.88-13.24c-.42-2.94-2.22-6.41-6.18-5.77-3.79.61-4.8 4.61-4.6 7.51zm28.54 4.59a34.19 34.19 0 001.3 5.79l-4.68.75-.82-2.8h-.13a8.42 8.42 0 01-6.33 4.45 7 7 0 01-8.37-6c-1-6.11 3.83-10 12.26-11.34-.29-1.83-.88-5.48-5.83-4.69a11.53 11.53 0 00-5.7 2.65l-1.62-3.26a15.57 15.57 0 017.6-3.32c7.23-1.16 10 3.29 10.84 8.5zm-6.08-5.7c-4.05.66-8.61 2.17-7.91 6.53.43 2.72 2.32 3.65 4.24 3.35a5.08 5.08 0 004.32-5.82zM123 23.49a9.16 9.16 0 00-4.9-.63c-2.32.37-3.36 1.91-3.09 3.56s1.52 2.36 4.72 3.18c4.32 1 6.81 2.88 7.39 6.45.76 4.72-2.4 8.11-8 9a13.78 13.78 0 01-7-.58l.55-4a12.11 12.11 0 005.88.75c2.76-.45 3.88-2 3.58-3.87s-1.49-2.73-4.63-3.51c-4.65-1-7-3.18-7.42-6-.66-4.11 2.17-7.9 7.34-8.73a12.5 12.5 0 016.07.49zm25.33-8.82l-3.19 18c-1.61 8.49-2.96 13.39-5.41 16.72a13.18 13.18 0 01-5.2 4.08l-2-4.16c5-2.77 6.16-8.07 6.05-8.74a2.49 2.49 0 00-.44-1l-12.1-21.32 5.66-.91 6.68 13.11c.75 1.52 1.54 3.31 2.12 4.68h.14c.12-1.48.32-3.39.5-5.11l1.75-14.46z"
    fill="#fff" />
  <path
    d="M0 62.86c0-14.59 9.13-21.51 19.93-21.51a30.39 30.39 0 018.68 1.11l-1 12.46a17 17 0 00-4.7-.65c-6.73 0-6.73 6.56-6.73 10.43h9.6v11.72h-9.54v40.25H0V62.86zm70.98 51.87a47.49 47.49 0 01-17.17 2.86c-16.34 0-25.57-9.78-25.57-26 0-14.86 8.68-27.87 24.18-27.87 12.37 0 21.14 8.3 21.14 25.93a37.08 37.08 0 01-.46 6.83H43.75c.37 6.19 5.91 9 12.64 9a39.56 39.56 0 0012.46-2zM58.7 85.29c0-4.62-1.48-10.43-7.11-10.43s-7.66 6.09-7.93 10.43zm63.87 29.44a47.44 47.44 0 01-17.16 2.86c-16.34 0-25.57-9.78-25.57-26 0-14.86 8.67-27.87 24.18-27.87 12.37 0 21.14 8.3 21.14 25.93a38 38 0 01-.46 6.83H95.34c.37 6.19 5.91 9 12.65 9a39.56 39.56 0 0012.46-2zM110.3 85.29c0-4.62-1.48-10.43-7.11-10.43s-7.66 6.09-7.94 10.43zm68.39 15.5c0 5.73.19 11.72.37 15.88h-14.21l-.74-6.74h-.28a15.68 15.68 0 01-13.65 7.75c-11.91 0-19.66-11.44-19.66-26.76 0-17.63 9.6-27.23 20.4-27.23 5.54 0 9.51 2.21 11.26 5.35h.28V42.27h16.24zm-16.24-14.86c0-7.2-4.25-9.32-7-9.32-5.91 0-8.58 6.46-8.58 14.31 0 8.95 3.51 13.66 8.49 13.66 3.05 0 7.11-1.94 7.11-9zm40.15-15.69a15.66 15.66 0 0113.29-6.55c11.54 0 18.46 11 18.46 25.84 0 18.65-10 28.15-20.86 28.15-5.08 0-9.69-1.84-13-7.56h-.19l-.83 6.55h-13.76c.18-4.06.37-10.15.37-15.88V42.37h16.24v27.87zm-.28 25.75c0 5.82 3.69 8.77 7.2 8.77 5.45 0 8.49-5.08 8.49-14.3 0-8.13-2.77-13.76-8.49-13.76-3.6 0-7.2 3.23-7.2 8.86zm78.09 8.4a67.11 67.11 0 00.83 12.28h-14.58l-.93-5h-.27c-3.14 4.16-8 6-13.39 6-9.41 0-15.6-7.2-15.6-16 0-13.76 12.28-19.66 27.6-19.76 0-4-1.75-6.83-8.31-6.83a25.26 25.26 0 00-12.83 3.51l-2.95-10.43a40.32 40.32 0 0119-4.43c17.16 0 21.41 10.89 21.41 22.43zm-15.78-12.23c-6.74 0-12.46 1.94-12.46 7.93 0 4.25 2.58 6.09 5.44 6.09a7 7 0 007-7.29zm57.22 23.49c-2.21 1-6.83 1.94-11.9 1.94-15.51 0-25.39-9.69-25.39-26.3 0-15.7 10.16-27.51 27.6-27.51a32.48 32.48 0 0110.25 1.66l-2.31 12.28a21 21 0 00-7.11-1.2c-7.38 0-12.09 5.72-12 14.12 0 9 5.17 14.12 12.09 14.12a19.14 19.14 0 007.3-1.29zm54.18 1.02h-19.19l-9.51-20.77-3.23 4.8v16h-16.25V42.37h16.25v44.39h.27a72.74 72.74 0 013.14-6.83l8.12-15.23h18.74L358.5 86.16z"
    fill="#991636" />
</svg>
